<svg xmlns="http://www.w3.org/2000/svg" style="width:100%;height:100%;transform:translate3d(0,0,0);content-visibility:visible" viewBox="90 -8 257 458"><defs><clipPath id="a"><path d="M0 0h430v430H0z"/></clipPath><clipPath id="c"><path d="M0 0h430v430H0z"/></clipPath><clipPath id="b"><path d="M0 0h430v430H0z"/></clipPath></defs><g clip-path="url(#a)"><g clip-path="url(#b)" style="display:block"><path fill="#3A3347" d="M22.833-110.438v-10.589c0-7.935-6.424-14.36-14.348-14.36H-8.49c-7.924 0-14.349 6.425-14.349 14.36v10.591c-57.553 10.72-101.127 61.197-101.127 121.858 0 68.464 55.502 123.965 123.966 123.965S123.966 79.886 123.966 11.422c0-60.663-43.577-111.142-101.133-121.86" class="secondary" style="display:block" transform="translate(216.75 233.549)"/><g opacity=".5" style="mix-blend-mode:multiply;display:block"><path fill="#3A3347" d="M-41.55 11.422c0-60.661 43.574-111.138 101.127-121.858v-10.591c0-6.121 3.829-11.329 9.214-13.397a14.3 14.3 0 0 0-5.134-.963H46.682c-7.924 0-14.349 6.425-14.349 14.36v10.591C-25.22-99.716-68.794-49.239-68.794 11.422c0 68.464 55.502 123.965 123.966 123.965 4.604 0 9.148-.259 13.622-.748C6.74 127.855-41.55 75.282-41.55 11.422" class="secondary" opacity="1" style="mix-blend-mode:multiply" transform="translate(161.578 233.549)"/></g><path fill="none" stroke="#121331" stroke-linecap="round" stroke-linejoin="round" stroke-width="7" d="M1.378-115.522c0-46.174 43.13-49.401 69.241-35.036 18.863 10.377 29.596 35.036 54.782 35.036m0 146.809c0 68.464-55.501 123.965-123.965 123.965S-122.53 99.751-122.53 31.287-67.028-92.679 1.436-92.679 125.401-37.177 125.401 31.287M-21.403-90.567v-10.595c0-7.935 6.425-14.36 14.349-14.36H9.921c7.924 0 14.348 6.425 14.348 14.36v10.595M94.764 67.601c-10.572 27.166-32.655 48.581-60.259 58.25-10.369 3.632-21.518 5.607-33.127 5.607" class="primary" style="display:block" transform="translate(215.151 213.818)"/><g style="display:none"><path class="primary"/><path fill="none" class="primary" style="mix-blend-mode:soft-light"/><path class="primary"/><path fill="none" class="primary" style="mix-blend-mode:soft-light"/><path class="primary"/></g><g style="display:none"><path class="primary"/><path fill="none" class="primary" style="mix-blend-mode:soft-light"/><path class="primary"/><path fill="none" class="primary" style="mix-blend-mode:soft-light"/><path class="primary"/></g><g style="display:none"><path class="primary"/><path fill="none" class="primary" style="mix-blend-mode:soft-light"/><path class="primary"/><path fill="none" class="primary" style="mix-blend-mode:soft-light"/><path class="primary"/></g><g style="display:none"><path class="primary"/><path fill="none" class="primary" style="mix-blend-mode:soft-light"/><path class="primary"/><path fill="none" class="primary" style="mix-blend-mode:soft-light"/><path class="primary"/></g><g style="display:none"><path class="primary"/><path fill="none" class="primary" style="mix-blend-mode:soft-light"/><path class="primary"/><path fill="none" class="primary" style="mix-blend-mode:soft-light"/><path class="primary"/></g><g style="display:none"><path class="primary"/><path fill="none" class="primary" style="mix-blend-mode:soft-light"/><path class="primary"/><path fill="none" class="primary" style="mix-blend-mode:soft-light"/><path class="primary"/></g><g style="display:none"><path class="primary"/><path fill="none" class="primary" style="mix-blend-mode:soft-light"/><path class="primary"/><path fill="none" class="primary" style="mix-blend-mode:soft-light"/><path class="primary"/></g><g style="display:none"><path class="primary"/><path fill="none" class="primary" style="mix-blend-mode:soft-light"/><path class="primary"/><path fill="none" class="primary" style="mix-blend-mode:soft-light"/><path class="primary"/></g><g style="display:none"><path class="primary"/><path fill="none" class="primary" style="mix-blend-mode:soft-light"/><path class="primary"/><path fill="none" class="primary" style="mix-blend-mode:soft-light"/><path class="primary"/></g><g style="display:none"><path class="primary"/><path fill="none" class="primary" style="mix-blend-mode:soft-light"/><path class="primary"/><path fill="none" class="primary" style="mix-blend-mode:soft-light"/><path class="primary"/></g><g style="display:none"><path class="primary"/><path fill="none" class="primary" style="mix-blend-mode:soft-light"/><path class="primary"/><path fill="none" class="primary" style="mix-blend-mode:soft-light"/><path class="primary"/></g><g style="display:none"><path class="primary"/><path fill="none" class="primary" style="mix-blend-mode:soft-light"/><path class="primary"/><path fill="none" class="primary" style="mix-blend-mode:soft-light"/><path class="primary"/></g><g style="display:none"><path class="primary"/><path fill="none" class="primary" style="mix-blend-mode:soft-light"/><path class="primary"/><path fill="none" class="primary" style="mix-blend-mode:soft-light"/><path class="primary"/></g><g style="display:none"><path class="primary"/><path fill="none" class="primary" style="mix-blend-mode:soft-light"/><path class="primary"/><path fill="none" class="primary" style="mix-blend-mode:soft-light"/><path class="primary"/></g></g><g clip-path="url(#c)" style="display:none"><path fill="none" class="primary" style="display:none"/><g style="display:none"><path class="secondary"/><path class="secondary" style="mix-blend-mode:multiply"/></g><g fill="none" style="display:none"><path class="primary"/><path class="primary"/></g></g></g></svg>